<?xml version="1.0" standalone="no"?><!DOCTYPE svg PUBLIC "-//W3C//DTD SVG 1.1//EN" "http://www.w3.org/Graphics/SVG/1.1/DTD/svg11.dtd"><svg t="1749547342612" class="icon" viewBox="0 0 1024 1024" version="1.1" xmlns="http://www.w3.org/2000/svg" p-id="1458" xmlns:xlink="http://www.w3.org/1999/xlink" width="16" height="16"><path d="M85.333333 298.666667a213.333333 213.333333 0 0 1 213.333334-213.333334h426.666666a213.333333 213.333333 0 0 1 213.333334 213.333334v426.666666a213.333333 213.333333 0 0 1-213.333334 213.333334H298.666667a213.333333 213.333333 0 0 1-213.333334-213.333334V298.666667z m661.333334 21.333333a42.666667 42.666667 0 1 0 0-85.333333 42.666667 42.666667 0 0 0 0 85.333333zM512 298.666667a213.333333 213.333333 0 1 0 0 426.666666 213.333333 213.333333 0 0 0 0-426.666666z" fill="#ffffff" fill-opacity=".85" p-id="1459"></path></svg>